<svg xmlns="http://www.w3.org/2000/svg" xml:space="preserve" width="800" height="800" viewBox="0 0 512 512"><path fill="#3a5d74" d="M295.602 203.708a8.434 8.434 0 0 1-7.871-11.461l25.031-65.11a8.434 8.434 0 0 1 15.744 6.051l-25.029 65.11a8.44 8.44 0 0 1-7.875 5.41m-80.565-.828a8.44 8.44 0 0 1-7.848-5.342l-25.444-64.502a8.434 8.434 0 1 1 15.692-6.19l25.444 64.502a8.434 8.434 0 0 1-4.751 10.941 8.4 8.4 0 0 1-3.093.591"/><path fill="#59c384" d="M404.857 452.807h-50.489V287.541c0-54.325-44.038-98.366-98.366-98.366s-98.366 44.041-98.366 98.366v165.265h-50.491c-11.538 0-20.891 9.353-20.891 20.893v17.41c0 11.538 9.353 20.891 20.891 20.891h297.711c11.538 0 20.891-9.353 20.891-20.891v-17.41c.001-11.538-9.352-20.892-20.89-20.892"/><path fill="#3a5d74" d="M256.001 346.335c-25.13 0-45.574-20.445-45.574-45.574a8.434 8.434 0 1 1 16.868 0c0 15.829 12.876 28.705 28.705 28.705 15.83 0 28.708-12.878 28.708-28.705 0-4.658 3.775-8.434 8.434-8.434s8.434 3.776 8.434 8.434c.002 25.129-20.444 45.574-45.575 45.574"/><circle cx="344.798" cy="67.32" r="67.318" fill="#ffd960"/><circle cx="164.887" cy="67.32" r="67.32" fill="#ffd960"/><path fill="#231f20" d="M295.842 67.32c0-34.063 25.302-62.197 58.134-66.679a68 68 0 0 0-9.183-.64c-37.179 0-67.318 30.14-67.318 67.319s30.139 67.32 67.318 67.32c3.117 0 6.18-.229 9.184-.64-32.833-4.482-58.135-32.618-58.135-66.68m-179.906 0c0-34.063 25.305-62.197 58.135-66.679a68 68 0 0 0-9.183-.64c-37.179 0-67.32 30.14-67.32 67.319s30.142 67.32 67.32 67.32c3.116 0 6.18-.229 9.183-.64-32.829-4.482-58.135-32.618-58.135-66.68" opacity=".1"/><circle cx="344.798" cy="67.319" r="26.695" fill="#3a5d74"/><circle cx="164.887" cy="67.319" r="26.695" fill="#3a5d74"/><path fill="#231f20" d="M256.001 189.177c-54.328 0-98.366 44.041-98.366 98.366v165.265h2.852c5.16-.345 15.516-2.773 15.516-16.706v-148.56c0-51.228 39.163-93.303 89.183-97.936a100 100 0 0 0-9.185-.429" opacity=".1"/></svg>