<?xml version="1.0" encoding="iso-8859-1"?>
<!-- Uploaded to: SVG Repo, www.svgrepo.com, Generator: SVG Repo Mixer Tools -->
<svg height="800px" width="800px" version="1.1" id="Layer_1" xmlns="http://www.w3.org/2000/svg" xmlns:xlink="http://www.w3.org/1999/xlink" 
	 viewBox="0 0 512 512" xml:space="preserve">
<g>
	<path style="fill:#3A5D74;" d="M295.602,203.708c-1.006,0-2.029-0.181-3.024-0.563c-4.348-1.671-6.518-6.551-4.847-10.898
		l25.031-65.11c1.671-4.348,6.55-6.517,10.898-4.847c4.348,1.671,6.517,6.551,4.846,10.898l-25.029,65.11
		C302.189,201.65,298.992,203.708,295.602,203.708z"/>
	<path style="fill:#3A5D74;" d="M215.037,202.88c-3.361,0-6.539-2.024-7.848-5.342l-25.444-64.502
		c-1.709-4.333,0.417-9.232,4.751-10.941c4.332-1.709,9.232,0.417,10.941,4.751l25.444,64.502c1.709,4.333-0.417,9.232-4.751,10.941
		C217.114,202.69,216.067,202.88,215.037,202.88z"/>
</g>
<path style="fill:#59C384;" d="M404.857,452.807h-50.489v-72.914v-26.99v-65.362c0-54.325-44.038-98.366-98.366-98.366
	c-54.328,0-98.366,44.041-98.366,98.366v165.265h-50.491c-11.538,0-20.891,9.353-20.891,20.893v17.41
	c0,11.538,9.353,20.891,20.891,20.891h297.711c11.538,0,20.891-9.353,20.891-20.891v-17.41
	C425.748,462.161,416.395,452.807,404.857,452.807z"/>
<path style="fill:#3A5D74;" d="M256.001,346.335c-25.13,0-45.574-20.445-45.574-45.574c0-4.658,3.776-8.434,8.434-8.434
	s8.434,3.776,8.434,8.434c0,15.829,12.876,28.705,28.705,28.705c15.83,0,28.708-12.878,28.708-28.705
	c0-4.658,3.775-8.434,8.434-8.434s8.434,3.776,8.434,8.434C301.578,325.89,281.132,346.335,256.001,346.335z"/>
<g>
	<circle style="fill:#FFD960;" cx="344.798" cy="67.32" r="67.318"/>
	<circle style="fill:#FFD960;" cx="164.887" cy="67.32" r="67.32"/>
</g>
<g>
	<path style="opacity:0.1;fill:#231F20;enable-background:new    ;" d="M295.842,67.32c0-34.063,25.302-62.197,58.134-66.679
		c-3.004-0.409-6.066-0.64-9.183-0.64c-37.179,0-67.318,30.14-67.318,67.319c0,37.18,30.139,67.32,67.318,67.32
		c3.117,0,6.18-0.229,9.184-0.64C321.144,129.518,295.842,101.382,295.842,67.32z"/>
	<path style="opacity:0.1;fill:#231F20;enable-background:new    ;" d="M115.936,67.32c0-34.063,25.305-62.197,58.135-66.679
		c-3.004-0.409-6.066-0.64-9.183-0.64c-37.179,0-67.32,30.14-67.32,67.319c0,37.18,30.142,67.32,67.32,67.32
		c3.116,0,6.18-0.229,9.183-0.64C141.242,129.518,115.936,101.382,115.936,67.32z"/>
</g>
<g>
	<circle style="fill:#3A5D74;" cx="344.798" cy="67.319" r="26.695"/>
	<circle style="fill:#3A5D74;" cx="164.887" cy="67.319" r="26.695"/>
</g>
<path style="opacity:0.1;fill:#231F20;enable-background:new    ;" d="M256.001,189.177c-54.328,0-98.366,44.041-98.366,98.366
	v165.265h2.852c5.16-0.345,15.516-2.773,15.516-16.706v-148.56c0-51.228,39.163-93.303,89.183-97.936
	C262.16,189.327,259.099,189.177,256.001,189.177z"/>
</svg>