<?xml version="1.0" standalone="no"?>
<!DOCTYPE svg PUBLIC "-//W3C//DTD SVG 20010904//EN"
 "http://www.w3.org/TR/2001/REC-SVG-20010904/DTD/svg10.dtd">
<svg version="1.0" xmlns="http://www.w3.org/2000/svg"
 width="700.000000pt" height="700.000000pt" viewBox="0 0 700.000000 700.000000"
 preserveAspectRatio="xMidYMid meet">
<metadata>
Created by potrace 1.14, written by Peter Selinger 2001-2017
</metadata>
<g transform="translate(0.000000,700.000000) scale(0.100000,-0.100000)"
fill="#000000" stroke="none">
<path d="M2060 6979 c-104 -22 -250 -85 -334 -146 -331 -237 -470 -652 -346
-1036 45 -140 110 -246 215 -353 134 -136 258 -209 431 -255 124 -33 347 -35
445 -4 11 4 19 2 19 -5 0 -7 45 -127 101 -268 56 -142 130 -331 166 -422 35
-91 73 -181 83 -201 l19 -36 -76 -48 c-208 -132 -359 -296 -476 -518 -46 -88
-101 -232 -112 -296 -3 -19 -8 -37 -10 -40 -2 -4 -9 -45 -16 -91 -9 -64 -13
-382 -13 -1265 l-1 -1180 -50 -2 c-28 -2 -201 -4 -385 -5 l-335 -3 -53 -29
c-54 -30 -94 -72 -128 -136 -17 -31 -19 -58 -19 -235 0 -177 2 -204 19 -235
34 -64 74 -106 128 -136 l53 -29 2095 -3 c2320 -3 2141 -7 2232 62 24 19 57
58 73 87 l30 54 0 200 0 200 -29 53 c-35 63 -87 107 -159 134 -29 11 -53 19
-54 19 -2 -1 -166 -1 -366 -1 l-362 0 0 1163 c0 639 -3 1187 -6 1217 -4 30
-10 76 -13 101 -10 74 -45 198 -82 287 -117 282 -309 499 -590 668 -16 9 -9
34 95 305 62 162 116 303 122 314 5 11 33 85 64 165 l54 145 58 -5 c32 -3 117
-5 188 -4 187 1 325 42 486 146 189 122 354 363 394 578 14 77 18 117 17 191
-1 147 -29 271 -88 393 -131 273 -392 469 -684 514 -112 17 -293 8 -390 -21
-108 -32 -243 -97 -297 -142 -86 -71 -157 -142 -196 -195 -65 -90 -140 -243
-148 -305 -1 -5 -5 -19 -9 -31 -13 -32 -23 -121 -25 -209 -5 -301 150 -596
405 -767 41 -28 74 -56 72 -62 -3 -13 -70 -192 -83 -221 -5 -11 -18 -45 -29
-75 -11 -30 -25 -64 -30 -75 -5 -11 -52 -135 -105 -275 -53 -140 -99 -257
-101 -259 -1 -2 -38 6 -81 17 -43 12 -98 24 -123 27 -25 3 -53 8 -62 11 -26 8
-245 7 -308 -1 -90 -11 -111 -15 -195 -38 -44 -12 -84 -22 -88 -22 -5 0 -19
32 -33 70 -13 39 -28 79 -33 90 -15 31 -68 165 -226 570 -25 66 -53 137 -62
158 -9 20 -14 39 -12 41 2 2 31 20 63 40 67 43 197 169 242 236 183 268 218
582 98 880 -45 113 -110 208 -208 305 -117 115 -256 195 -414 236 -114 30
-299 34 -422 8z"/>
</g>
</svg>
