<svg xmlns="http://www.w3.org/2000/svg" width="933.333" height="933.333" version="1.0" viewBox="0 0 700 700"><path d="M206 2.1c-10.4 2.2-25 8.5-33.4 14.6-33.1 23.7-47 65.2-34.6 103.6 4.5 14 11 24.6 21.5 35.3 13.4 13.6 25.8 20.9 43.1 25.5 12.4 3.3 34.7 3.5 44.5.4 1.1-.4 1.9-.2 1.9.5s4.5 12.7 10.1 26.8c5.6 14.2 13 33.1 16.6 42.2 3.5 9.1 7.3 18.1 8.3 20.1l1.9 3.6-7.6 4.8c-20.8 13.2-35.9 29.6-47.6 51.8-4.6 8.8-10.1 23.2-11.2 29.6-.3 1.9-.8 3.7-1 4-.2.4-.9 4.5-1.6 9.1-.9 6.4-1.3 38.2-1.3 126.5l-.1 118-5 .2c-2.8.2-20.1.4-38.5.5l-33.5.3-5.3 2.9c-5.4 3-9.4 7.2-12.8 13.6-1.7 3.1-1.9 5.8-1.9 23.5s.2 20.4 1.9 23.5c3.4 6.4 7.4 10.6 12.8 13.6l5.3 2.9 209.5.3c232 .3 214.1.7 223.2-6.2 2.4-1.9 5.7-5.8 7.3-8.7l3-5.4v-40l-2.9-5.3c-3.5-6.3-8.7-10.7-15.9-13.4-2.9-1.1-5.3-1.9-5.4-1.9-.2.1-16.6.1-36.6.1h-36.2V502.7c0-63.9-.3-118.7-.6-121.7-.4-3-1-7.6-1.3-10.1-1-7.4-4.5-19.8-8.2-28.7-11.7-28.2-30.9-49.9-59-66.8-1.6-.9-.9-3.4 9.5-30.5 6.2-16.2 11.6-30.3 12.2-31.4.5-1.1 3.3-8.5 6.4-16.5l5.4-14.5 5.8.5c3.2.3 11.7.5 18.8.4 18.7-.1 32.5-4.2 48.6-14.6 18.9-12.2 35.4-36.3 39.4-57.8 1.4-7.7 1.8-11.7 1.7-19.1-.1-14.7-2.9-27.1-8.8-39.3C541.3 25.3 515.2 5.7 486 1.2c-11.2-1.7-29.3-.8-39 2.1-10.8 3.2-24.3 9.7-29.7 14.2-8.6 7.1-15.7 14.2-19.6 19.5-6.5 9-14 24.3-14.8 30.5-.1.5-.5 1.9-.9 3.1-1.3 3.2-2.3 12.1-2.5 20.9-.5 30.1 15 59.6 40.5 76.7 4.1 2.8 7.4 5.6 7.2 6.2-.3 1.3-7 19.2-8.3 22.1-.5 1.1-1.8 4.5-2.9 7.5s-2.5 6.4-3 7.5-5.2 13.5-10.5 27.5-9.9 25.7-10.1 25.9c-.1.2-3.8-.6-8.1-1.7-4.3-1.2-9.8-2.4-12.3-2.7s-5.3-.8-6.2-1.1c-2.6-.8-24.5-.7-30.8.1-9 1.1-11.1 1.5-19.5 3.8-4.4 1.2-8.4 2.2-8.8 2.2-.5 0-1.9-3.2-3.3-7-1.3-3.9-2.8-7.9-3.3-9-1.5-3.1-6.8-16.5-22.6-57-2.5-6.6-5.3-13.7-6.2-15.8-.9-2-1.4-3.9-1.2-4.1s3.1-2 6.3-4c6.7-4.3 19.7-16.9 24.2-23.6 18.3-26.8 21.8-58.2 9.8-88-4.5-11.3-11-20.8-20.8-30.5C277.9 15 264 7 248.2 2.9c-11.4-3-29.9-3.4-42.2-.8"/></svg>